<svg xmlns="http://www.w3.org/2000/svg" xmlns:xlink="http://www.w3.org/1999/xlink" viewBox="0 0 350 350" width="350" height="350" preserveAspectRatio="xMidYMid meet" style="width: 100%; height: 100%; transform: translate3d(0px, 0px, 0px); content-visibility: visible;"><defs><clipPath id="__lottie_element_2"><rect width="350" height="350" x="0" y="0"></rect></clipPath><symbol id="__lottie_element_6"><g><g transform="matrix(0.07415404170751572,0,0,0.07415404170751572,186.57029724121094,171.18736267089844)" opacity="1" style="display: block;"><g opacity="1" transform="matrix(1,0,0,1,0,0)"><path fill="rgb(0,0,0)" fill-opacity="1" d=" M88.30000305175781,-84.75499725341797 C88.16600036621094,-64.79900360107422 88.06600189208984,-44.845001220703125 87.93199920654297,-24.888999938964844 C87.73200225830078,8.682000160217285 87.53199768066406,42.25299835205078 87.2979965209961,75.8239974975586 C87.2979965209961,77.25900268554688 87.26499938964844,78.66100311279297 87.26499938964844,80.09600067138672 C87.26499938964844,83.36599731445312 87.03199768066406,87.10299682617188 84.52899932861328,89.23899841308594 C82.5270004272461,90.94100189208984 79.69000244140625,91.07499694824219 77.05400085449219,91.10800170898438 C61.702999114990234,91.40799713134766 46.31999969482422,91.70899963378906 30.9689998626709,92.00900268554688 C8.944000244140625,92.40899658203125 -13.11400032043457,92.84300231933594 -35.138999938964844,93.2770004272461 C-39.611000061035156,93.37699890136719 -44.1150016784668,93.44400024414062 -48.58700180053711,93.54399871826172 C-48.619998931884766,93.54499816894531 -48.65399932861328,93.54499816894531 -48.6879997253418,93.5459976196289 C-56.689998626708984,93.74800109863281 -63.29499816894531,87.3499984741211 -63.13399887084961,79.34700012207031 C-62.715999603271484,58.56399917602539 -61.69200134277344,7.214000225067139 -61.71500015258789,4.785999774932861 C-61.74599838256836,1.5479999780654907 -61.78099822998047,-1.7059999704360962 -61.801998138427734,-4.933000087738037 C-62.10200119018555,-39.3380012512207 -62.569000244140625,-72.70899963378906 -63.10300064086914,-82.35299682617188 C-63.16999816894531,-83.08699798583984 -63.20399856567383,-83.68800354003906 -63.23699951171875,-84.15499877929688 C-63.40399932861328,-88.0260009765625 -63.470001220703125,-92.26300048828125 -61.13399887084961,-95.36699676513672 C-58.03099822998047,-99.5719985961914 -52.02399826049805,-100.03900146484375 -46.78499984741211,-100.10600280761719 C-30.399999618530273,-100.33999633789062 -14.015000343322754,-100.572998046875 2.369999885559082,-100.80699920654297 C24.26099967956543,-101.10700225830078 46.11899948120117,-101.40799713134766 67.97699737548828,-101.70800018310547 C69.31199645996094,-101.74099731445312 70.64600372314453,-101.74199676513672 71.98100280761719,-101.7750015258789 C76.28600311279297,-101.84200286865234 80.99099731445312,-101.74099731445312 84.22799682617188,-98.97100067138672 C88.06600189208984,-95.63400268554688 88.33300018310547,-89.8270034790039 88.30000305175781,-84.75499725341797z"></path></g></g></g></symbol><symbol id="__lottie_element_12"><g><g transform="matrix(0,0,0,0,121.74199676513672,232.9080047607422)" opacity="1" style="display: block;"><g opacity="1" transform="matrix(1,0,0,1,0,0)"><path fill="rgb(96,96,96)" fill-opacity="1" d=" M3.8340001106262207,57.90800094604492 C3.8340001106262207,89.43900299072266 -21.726999282836914,115 -53.257999420166016,115 C-84.78900146484375,115 -110.35099792480469,89.43900299072266 -110.35099792480469,57.90800094604492 C-110.35099792480469,26.37700080871582 -84.78900146484375,0.8149999976158142 -53.257999420166016,0.8149999976158142 C-21.726999282836914,0.8149999976158142 3.8340001106262207,26.37700080871582 3.8340001106262207,57.90800094604492z"></path></g></g></g></symbol><symbol id="__lottie_element_18"><g><g transform="matrix(0,0,0,0,121.74199676513672,232.9080047607422)" opacity="1" style="display: block;"><g opacity="1" transform="matrix(1,0,0,1,0,0)"><path fill="rgb(96,96,96)" fill-opacity="1" d=" M3.8340001106262207,57.90800094604492 C3.8340001106262207,89.43900299072266 -21.726999282836914,115 -53.257999420166016,115 C-84.78900146484375,115 -110.35099792480469,89.43900299072266 -110.35099792480469,57.90800094604492 C-110.35099792480469,26.37700080871582 -84.78900146484375,0.8149999976158142 -53.257999420166016,0.8149999976158142 C-21.726999282836914,0.8149999976158142 3.8340001106262207,26.37700080871582 3.8340001106262207,57.90800094604492z"></path></g></g></g></symbol><filter id="__lottie_element_21" filterUnits="objectBoundingBox" x="0%" y="0%" width="100%" height="100%"><feComponentTransfer in="SourceGraphic"><feFuncA type="table" tableValues="1.0 0.0"></feFuncA></feComponentTransfer></filter><mask id="__lottie_element_12_2" mask-type="alpha"><g filter="url(#__lottie_element_21)"><rect width="350" height="350" x="0" y="0" fill="#ffffff" opacity="0"></rect><use xlink:href="#__lottie_element_12"></use></g></mask><filter id="__lottie_element_22" filterUnits="objectBoundingBox" x="0%" y="0%" width="100%" height="100%"><feComponentTransfer in="SourceGraphic"><feFuncA type="table" tableValues="1.0 0.0"></feFuncA></feComponentTransfer></filter><mask id="__lottie_element_6_2" mask-type="alpha"><g filter="url(#__lottie_element_22)"><rect width="350" height="350" x="0" y="0" fill="#ffffff" opacity="0"></rect><use xlink:href="#__lottie_element_6"></use></g></mask><filter id="__lottie_element_27" filterUnits="objectBoundingBox" x="0%" y="0%" width="100%" height="100%"><feComponentTransfer in="SourceGraphic"><feFuncA type="table" tableValues="1.0 0.0"></feFuncA></feComponentTransfer></filter><mask id="__lottie_element_18_2" mask-type="alpha"><g filter="url(#__lottie_element_27)"><rect width="350" height="350" x="0" y="0" fill="#ffffff" opacity="0"></rect><use xlink:href="#__lottie_element_18"></use></g></mask></defs><g clip-path="url(#__lottie_element_2)"><g mask="url(#__lottie_element_6_2)" style="display: block;"><g transform="matrix(0.07415404170751572,0,0,0.07415404170751572,188.63308715820312,171.0179443359375)" opacity="1"><g opacity="1" transform="matrix(1,0,0,1,0,0)"><path fill="rgb(0,0,0)" fill-opacity="1" d=" M68.71700286865234,-100.87799835205078 C73.4800033569336,-81.4990005493164 78.2750015258789,-62.12699890136719 83.03800201416016,-42.74800109863281 C91.0739974975586,-10.152000427246094 99.11000061035156,22.441999435424805 107.11399841308594,55.04600143432617 C107.46600341796875,56.4370002746582 107.7770004272461,57.80500030517578 108.12899780273438,59.19599914550781 C108.93099975585938,62.36600112915039 109.62100219726562,66.0469970703125 107.71800231933594,68.73100280761719 C106.19400024414062,70.87200164794922 103.47699737548828,71.69599914550781 100.92900085449219,72.375 C86.12000274658203,76.43000030517578 71.27999877929688,80.49199676513672 56.47100067138672,84.5469970703125 C35.21699905395508,90.33499908447266 13.937999725341797,96.16300201416016 -7.308000087738037,101.98300170898438 C-11.619000434875488,103.1760025024414 -15.968999862670898,104.34600067138672 -20.280000686645508,105.53900146484375 C-20.312000274658203,105.5479965209961 -20.344999313354492,105.55699920654297 -20.378000259399414,105.56600189208984 C-28.086999893188477,107.7229995727539 -36.05799865722656,103.13999938964844 -37.86399841308594,95.34100341796875 C-42.55400085449219,75.08899688720703 -54.14899826049805,25.058000564575195 -54.766998291015625,22.708999633789062 C-55.590999603271484,19.57699966430664 -56.422000885009766,16.43000030517578 -57.23400115966797,13.307000160217285 C-65.95999908447266,-19.975000381469727 -74.59400177001953,-52.21200180053711 -77.47599792480469,-61.430999755859375 C-77.72100067138672,-62.125999450683594 -77.9000015258789,-62.70000076293945 -78.0469970703125,-63.14500045776367 C-79.15799713134766,-66.85700225830078 -80.26200103759766,-70.9489974975586 -78.75800323486328,-74.53099822998047 C-76.77999877929688,-79.36799621582031 -71.07099914550781,-81.29399871826172 -66.00800323486328,-82.64299774169922 C-50.18000030517578,-86.88600158691406 -34.35300064086914,-91.12999725341797 -18.524999618530273,-95.37300109863281 C2.624000072479248,-101.03099822998047 23.742000579833984,-106.68099975585938 44.85900115966797,-112.33100128173828 C46.14500045776367,-112.69100189208984 47.43899917602539,-113.01799774169922 48.724998474121094,-113.37799835205078 C52.88199996948242,-114.49800109863281 57.46799850463867,-115.55400085449219 61.28499984741211,-113.66200256347656 C65.8239974975586,-111.36799621582031 67.50599670410156,-105.80400085449219 68.71700286865234,-100.87799835205078z"></path><path stroke-linecap="round" stroke-linejoin="round" fill-opacity="0" stroke="rgb(0,0,0)" stroke-opacity="1" stroke-width="5.026" d=" M68.71700286865234,-100.87799835205078 C73.4800033569336,-81.4990005493164 78.2750015258789,-62.12699890136719 83.03800201416016,-42.74800109863281 C91.0739974975586,-10.152000427246094 99.11000061035156,22.441999435424805 107.11399841308594,55.04600143432617 C107.46600341796875,56.4370002746582 107.7770004272461,57.80500030517578 108.12899780273438,59.19599914550781 C108.93099975585938,62.36600112915039 109.62100219726562,66.0469970703125 107.71800231933594,68.73100280761719 C106.19400024414062,70.87200164794922 103.47699737548828,71.69599914550781 100.92900085449219,72.375 C86.12000274658203,76.43000030517578 71.27999877929688,80.49199676513672 56.47100067138672,84.5469970703125 C35.21699905395508,90.33499908447266 13.937999725341797,96.16300201416016 -7.308000087738037,101.98300170898438 C-11.619000434875488,103.1760025024414 -15.968999862670898,104.34600067138672 -20.280000686645508,105.53900146484375 C-20.312000274658203,105.5479965209961 -20.344999313354492,105.55699920654297 -20.378000259399414,105.56600189208984 C-28.086999893188477,107.7229995727539 -36.05799865722656,103.13999938964844 -37.86399841308594,95.34100341796875 C-42.55400085449219,75.08899688720703 -54.14899826049805,25.058000564575195 -54.766998291015625,22.708999633789062 C-55.590999603271484,19.57699966430664 -56.422000885009766,16.43000030517578 -57.23400115966797,13.307000160217285 C-65.95999908447266,-19.975000381469727 -74.59400177001953,-52.21200180053711 -77.47599792480469,-61.430999755859375 C-77.72100067138672,-62.125999450683594 -77.9000015258789,-62.70000076293945 -78.0469970703125,-63.14500045776367 C-79.15799713134766,-66.85700225830078 -80.26200103759766,-70.9489974975586 -78.75800323486328,-74.53099822998047 C-76.77999877929688,-79.36799621582031 -71.07099914550781,-81.29399871826172 -66.00800323486328,-82.64299774169922 C-50.18000030517578,-86.88600158691406 -34.35300064086914,-91.12999725341797 -18.524999618530273,-95.37300109863281 C2.624000072479248,-101.03099822998047 23.742000579833984,-106.68099975585938 44.85900115966797,-112.33100128173828 C46.14500045776367,-112.69100189208984 47.43899917602539,-113.01799774169922 48.724998474121094,-113.37799835205078 C52.88199996948242,-114.49800109863281 57.46799850463867,-115.55400085449219 61.28499984741211,-113.66200256347656 C65.8239974975586,-111.36799621582031 67.50599670410156,-105.80400085449219 68.71700286865234,-100.87799835205078z"></path></g></g></g><g mask="url(#__lottie_element_12_2)" style="display: block;"><g transform="matrix(0.07415404170751572,0,0,0.07415404170751572,175,175)" opacity="1"><g opacity="1" transform="matrix(1,0,0,1,0,0)"><path stroke-linecap="round" stroke-linejoin="round" fill-opacity="0" stroke="rgb(0,0,0)" stroke-opacity="1" stroke-width="5.026" d=" M88.30000305175781,-84.75499725341797 C88.16600036621094,-64.79900360107422 88.06600189208984,-44.845001220703125 87.93199920654297,-24.888999938964844 C87.73200225830078,8.682000160217285 87.53199768066406,42.25299835205078 87.2979965209961,75.8239974975586 C87.2979965209961,77.25900268554688 87.26499938964844,78.66100311279297 87.26499938964844,80.09600067138672 C87.26499938964844,83.36599731445312 87.03199768066406,87.10299682617188 84.52899932861328,89.23899841308594 C82.5270004272461,90.94100189208984 79.69000244140625,91.07499694824219 77.05400085449219,91.10800170898438 C61.702999114990234,91.40799713134766 46.31999969482422,91.70899963378906 30.9689998626709,92.00900268554688 C8.944000244140625,92.40899658203125 -13.11400032043457,92.84300231933594 -35.138999938964844,93.2770004272461 C-39.611000061035156,93.37699890136719 -44.1150016784668,93.44400024414062 -48.58700180053711,93.54399871826172 C-48.619998931884766,93.54499816894531 -48.65399932861328,93.54499816894531 -48.6879997253418,93.5459976196289 C-56.689998626708984,93.74800109863281 -63.29499816894531,87.3499984741211 -63.13399887084961,79.34700012207031 C-62.715999603271484,58.56399917602539 -61.69200134277344,7.214000225067139 -61.71500015258789,4.785999774932861 C-61.74599838256836,1.5479999780654907 -61.78099822998047,-1.7059999704360962 -61.801998138427734,-4.933000087738037 C-62.10200119018555,-39.3380012512207 -62.569000244140625,-72.70899963378906 -63.10300064086914,-82.35299682617188 C-63.16999816894531,-83.08699798583984 -63.20399856567383,-83.68800354003906 -63.23699951171875,-84.15499877929688 C-63.40399932861328,-88.0260009765625 -63.470001220703125,-92.26300048828125 -61.13399887084961,-95.36699676513672 C-58.03099822998047,-99.5719985961914 -52.02399826049805,-100.03900146484375 -46.78499984741211,-100.10600280761719 C-30.399999618530273,-100.33999633789062 -14.015000343322754,-100.572998046875 2.369999885559082,-100.80699920654297 C24.26099967956543,-101.10700225830078 46.11899948120117,-101.40799713134766 67.97699737548828,-101.70800018310547 C69.31199645996094,-101.74099731445312 70.64600372314453,-101.74199676513672 71.98100280761719,-101.7750015258789 C76.28600311279297,-101.84200286865234 80.99099731445312,-101.74099731445312 84.22799682617188,-98.97100067138672 C88.06600189208984,-95.63400268554688 88.33300018310547,-89.8270034790039 88.30000305175781,-84.75499725341797z"></path></g><g opacity="1" transform="matrix(1,0,0,1,0,0)"><path stroke-linecap="round" stroke-linejoin="round" fill-opacity="0" stroke="rgb(0,0,0)" stroke-opacity="1" stroke-width="5.026" d="M0 0"></path></g><g opacity="1" transform="matrix(1,0,0,1,0,0)"><path stroke-linecap="round" stroke-linejoin="round" fill-opacity="0" stroke="rgb(0,0,0)" stroke-opacity="1" stroke-width="5.026" d="M0 0"></path></g><g opacity="1" transform="matrix(1,0,0,1,0,0)"><path stroke-linecap="round" stroke-linejoin="round" fill-opacity="0" stroke="rgb(0,0,0)" stroke-opacity="1" stroke-width="5.026" d="M0 0"></path></g><g opacity="1" transform="matrix(1,0,0,1,0,0)"><path stroke-linecap="round" stroke-linejoin="round" fill-opacity="0" stroke="rgb(0,0,0)" stroke-opacity="1" stroke-width="5.026" d="M0 0"></path></g><g opacity="1" transform="matrix(1,0,0,1,0,0)"><path stroke-linecap="round" stroke-linejoin="round" fill-opacity="0" stroke="rgb(0,0,0)" stroke-opacity="1" stroke-width="5.026" d="M0 0"></path></g></g></g><g transform="matrix(0,0,0,0,121.74199676513672,232.9080047607422)" opacity="1" style="display: block;"><g opacity="1" transform="matrix(1,0,0,1,0,0)"><g opacity="1" transform="matrix(1,0,0,1,0,0)"><path stroke-linecap="round" stroke-linejoin="round" fill-opacity="0" stroke="rgb(0,0,0)" stroke-opacity="1" stroke-width="5.026" d=" M3.8340001106262207,57.90800094604492 C3.8340001106262207,89.43900299072266 -21.726999282836914,115 -53.257999420166016,115 C-84.78900146484375,115 -110.35099792480469,89.43900299072266 -110.35099792480469,57.90800094604492 C-110.35099792480469,26.37700080871582 -84.78900146484375,0.8149999976158142 -53.257999420166016,0.8149999976158142 C-21.726999282836914,0.8149999976158142 3.8340001106262207,26.37700080871582 3.8340001106262207,57.90800094604492z"></path></g></g><g opacity="1" transform="matrix(0,0,0,0,-56.369998931884766,56.63100051879883)"><g opacity="1" transform="matrix(1,0,0,1,0,0)"><g opacity="1" transform="matrix(1,0,0,1,0,0)"><path fill="rgb(0,0,0)" fill-opacity="1" d=" M-25.187999725341797,23.378999710083008 C-26.393999099731445,25.041000366210938 -29.016000747680664,25.194000244140625 -31.04400062561035,23.722000122070312 C-33.071998596191406,22.25 -33.737998962402344,19.708999633789062 -32.53200149536133,18.047000885009766 C-31.326000213623047,16.385000228881836 -28.702999114990234,16.23200035095215 -26.674999237060547,17.70400047302246 C-24.64699935913086,19.176000595092773 -23.98200035095215,21.716999053955078 -25.187999725341797,23.378999710083008z"></path><path stroke-linecap="round" stroke-linejoin="round" fill-opacity="0" stroke="rgb(0,0,0)" stroke-opacity="1" stroke-width="5.026" d=" M-25.187999725341797,23.378999710083008 C-26.393999099731445,25.041000366210938 -29.016000747680664,25.194000244140625 -31.04400062561035,23.722000122070312 C-33.071998596191406,22.25 -33.737998962402344,19.708999633789062 -32.53200149536133,18.047000885009766 C-31.326000213623047,16.385000228881836 -28.702999114990234,16.23200035095215 -26.674999237060547,17.70400047302246 C-24.64699935913086,19.176000595092773 -23.98200035095215,21.716999053955078 -25.187999725341797,23.378999710083008z"></path></g><g opacity="1" transform="matrix(1,0,0,1,0,0)"><path fill="rgb(0,0,0)" fill-opacity="1" d=" M-29.33799934387207,24.216999053955078 C-29.031999588012695,24.437999725341797 -28.964000701904297,24.864999771118164 -29.18600082397461,25.17099952697754 C-29.18600082397461,25.17099952697754 -38.77000045776367,38.3849983215332 -38.77000045776367,38.3849983215332 C-38.974998474121094,38.0989990234375 -39.20800018310547,37.81700134277344 -39.47999954223633,37.57099914550781 C-39.47999954223633,37.57099914550781 -40.60200119018555,36.54800033569336 -40.60200119018555,36.54800033569336 C-40.94599914550781,36.236000061035156 -41.32899856567383,35.970001220703125 -41.73899841308594,35.75699996948242 C-42.10900115966797,35.564998626708984 -42.222999572753906,35.09400177001953 -41.97800064086914,34.75699996948242 C-41.97800064086914,34.75699996948242 -33.00699996948242,22.40399932861328 -33.00699996948242,22.40399932861328 C-32.7859992980957,22.099000930786133 -32.35900115966797,22.0310001373291 -32.05400085449219,22.25200080871582 C-32.05400085449219,22.25200080871582 -29.33799934387207,24.216999053955078 -29.33799934387207,24.216999053955078z"></path><path stroke-linecap="round" stroke-linejoin="round" fill-opacity="0" stroke="rgb(0,0,0)" stroke-opacity="1" stroke-width="5.026" d=" M-29.33799934387207,24.216999053955078 C-29.031999588012695,24.437999725341797 -28.964000701904297,24.864999771118164 -29.18600082397461,25.17099952697754 C-29.18600082397461,25.17099952697754 -38.77000045776367,38.3849983215332 -38.77000045776367,38.3849983215332 C-38.974998474121094,38.0989990234375 -39.20800018310547,37.81700134277344 -39.47999954223633,37.57099914550781 C-39.47999954223633,37.57099914550781 -40.60200119018555,36.54800033569336 -40.60200119018555,36.54800033569336 C-40.94599914550781,36.236000061035156 -41.32899856567383,35.970001220703125 -41.73899841308594,35.75699996948242 C-42.10900115966797,35.564998626708984 -42.222999572753906,35.09400177001953 -41.97800064086914,34.75699996948242 C-41.97800064086914,34.75699996948242 -33.00699996948242,22.40399932861328 -33.00699996948242,22.40399932861328 C-32.7859992980957,22.099000930786133 -32.35900115966797,22.0310001373291 -32.05400085449219,22.25200080871582 C-32.05400085449219,22.25200080871582 -29.33799934387207,24.216999053955078 -29.33799934387207,24.216999053955078z"></path></g><g opacity="1" transform="matrix(1,0,0,1,0,0)"><path stroke-linecap="round" stroke-linejoin="round" fill-opacity="0" stroke="rgb(0,0,0)" stroke-opacity="1" stroke-width="5.026" d=" M-37.845001220703125,40.715999603271484 C-37.845001220703125,40.715999603271484 -36.9010009765625,46.59700012207031 -36.9010009765625,46.59700012207031 C-36.68299865722656,47.95399856567383 -37.0260009765625,49.34400177001953 -37.83300018310547,50.45899963378906 C-37.83300018310547,50.45899963378906 -41.44599914550781,55.41699981689453 -41.44599914550781,55.41699981689453 C-41.470001220703125,55.45000076293945 -41.49300003051758,55.483001708984375 -41.53300094604492,55.50400161743164 C-41.53300094604492,55.50400161743164 -41.54499816894531,55.52000045776367 -41.54499816894531,55.52000045776367 C-41.61800003051758,55.604000091552734 -41.72700119018555,55.6510009765625 -41.85200119018555,55.68600082397461 C-42.691001892089844,55.87900161743164 -43.518001556396484,56.05500030517578 -44.36199951171875,56.21900177001953 C-45.755001068115234,56.486000061035156 -47.16600036621094,56.72700119018555 -48.56999969482422,56.92300033569336 C-49.178001403808594,57.020999908447266 -49.79100036621094,57.09000015258789 -50.4010009765625,57.17300033569336 C-51.224998474121094,57.2760009765625 -52.05400085449219,57.35100173950195 -52.882999420166016,57.42599868774414 C-53.900001525878906,57.50199890136719 -55.03900146484375,57.54100036621094 -55.82400131225586,56.89799880981445 C-56.53099822998047,56.2859992980957 -56.749000549316406,55.29199981689453 -56.9109992980957,54.375 C-57.560001373291016,50.78200149536133 -58.224998474121094,47.17599868774414 -58.874000549316406,43.58300018310547 C-58.887001037597656,43.4109992980957 -58.84199905395508,43.244998931884766 -58.73500061035156,43.09700012207031 C-58.73500061035156,43.09700012207031 -56.939998626708984,40.63399887084961 -56.939998626708984,40.63399887084961 C-56.939998626708984,40.63399887084961 -55.01300048828125,38.00400161743164 -55.01300048828125,38.00400161743164 C-54.141998291015625,36.834999084472656 -52.82899856567383,36.073001861572266 -51.38800048828125,35.92900085449219 C-51.38800048828125,35.92900085449219 -44.61199951171875,35.233001708984375 -44.61199951171875,35.233001708984375 C-44.2140007019043,35.183998107910156 -43.81999969482422,35.194000244140625 -43.4370002746582,35.23400115966797 C-42.29899978637695,35.369998931884766 -41.24800109863281,35.95500183105469 -40.39799880981445,36.731998443603516 C-40.39799880981445,36.731998443603516 -39.47999954223633,37.57099914550781 -39.47999954223633,37.57099914550781 C-39.20800018310547,37.81700134277344 -38.972999572753906,38.112998962402344 -38.75299835205078,38.39699935913086 C-38.26499938964844,39.08700180053711 -37.979000091552734,39.88199996948242 -37.845001220703125,40.715999603271484z"></path></g><g opacity="1" transform="matrix(1,0,0,1,0,0)"><path stroke-linecap="round" stroke-linejoin="round" fill-opacity="0" stroke="rgb(0,0,0)" stroke-opacity="1" stroke-width="5.026" d=" M-41.630001068115234,55.63999938964844 C-41.630001068115234,55.63999938964844 -52.95000076293945,71.16000366210938 -52.95000076293945,71.16000366210938 C-59.369998931884766,72.19000244140625 -63.83000183105469,78.16000366210938 -62.93000030517578,84.6500015258789 C-62.91999816894531,84.69999694824219 -62.91999816894531,84.75 -62.90999984741211,84.80000305175781 C-62.90999984741211,84.80000305175781 -69.94000244140625,94.44000244140625 -69.94000244140625,94.44000244140625 C-71.1500015258789,96.0999984741211 -73.26000213623047,96.9000015258789 -75.26000213623047,96.44000244140625 C-80.25,95.26000213623047 -84.26000213623047,92.30000305175781 -87.31999969482422,87.5999984741211 C-88.4000015258789,85.94999694824219 -88.41999816894531,83.83000183105469 -87.44000244140625,82.18000030517578 C-87.43000030517578,82.16999816894531 -87.43000030517578,82.16999816894531 -87.43000030517578,82.16999816894531 C-87.43000030517578,82.16999816894531 -58.91999816894531,43.33000183105469 -58.91999816894531,43.33000183105469 C-58.91999816894531,43.33000183105469 -58.869998931884766,43.58000183105469 -58.869998931884766,43.58000183105469 C-58.22999954223633,47.18000030517578 -57.560001373291016,50.779998779296875 -56.90999984741211,54.380001068115234 C-56.75,55.290000915527344 -56.529998779296875,56.290000915527344 -55.81999969482422,56.900001525878906 C-55.040000915527344,57.540000915527344 -53.900001525878906,57.5 -52.880001068115234,57.43000030517578 C-52.04999923706055,57.349998474121094 -51.22999954223633,57.2599983215332 -50.400001525878906,57.16999816894531 C-49.790000915527344,57.09000015258789 -49.18000030517578,57.02000045776367 -48.56999969482422,56.91999816894531 C-47.16999816894531,56.72999954223633 -45.75,56.4900016784668 -44.36000061035156,56.220001220703125 C-43.52000045776367,56.04999923706055 -42.689998626708984,55.880001068115234 -41.849998474121094,55.689998626708984 C-41.779998779296875,55.66999816894531 -41.70000076293945,55.65999984741211 -41.630001068115234,55.63999938964844z"></path></g><g opacity="1" transform="matrix(1,0,0,1,0,0)"><path stroke-linecap="round" stroke-linejoin="round" fill-opacity="0" stroke="rgb(0,0,0)" stroke-opacity="1" stroke-width="5.026" d=" M-39.13199996948242,81.38099670410156 C-38.22999954223633,87.9540023803711 -42.82699966430664,94.01300048828125 -49.400001525878906,94.91500091552734 C-55.972999572753906,95.81700134277344 -62.03200149536133,91.22100067138672 -62.933998107910156,84.64800262451172 C-63.83599853515625,78.07499694824219 -59.2400016784668,72.01499938964844 -52.66699981689453,71.11299896240234 C-46.09400177001953,70.21099853515625 -40.034000396728516,74.80799865722656 -39.13199996948242,81.38099670410156z"></path></g><g opacity="1" transform="matrix(1,0,0,1,0,0)"><path stroke-linecap="round" stroke-linejoin="round" fill-opacity="0" stroke="rgb(0,0,0)" stroke-opacity="1" stroke-width="5.026" d=" M-50.48699951171875,94.99400329589844 C-51.98400115966797,87.15899658203125 -50.604000091552734,78.77799987792969 -46.70899963378906,71.8290023803711"></path></g></g></g></g><g mask="url(#__lottie_element_18_2)" style="display: none;"><g transform="matrix(1,0,0,1,175,175)" opacity="1"><g opacity="1" transform="matrix(1,0,0,1,0,0)"><path fill="rgb(0,0,0)" fill-opacity="1" d=" M-61.79899978637695,-4.916999816894531 C-69.60800170898438,-32.981998443603516 -76.4489974975586,-56.909000396728516 -78.21800231933594,-61.78099822998047 C-79.38600158691406,-65.48500061035156 -80.5199966430664,-69.55599975585938 -79.08499908447266,-73.16000366210938 C-77.14900207519531,-77.9990005493164 -71.47699737548828,-80.0009994506836 -66.43800354003906,-81.40299987792969 C-65.33699798583984,-81.7030029296875 -64.2020034790039,-82.03700256347656 -63.10100173950195,-82.33699798583984 C-62.56700134277344,-72.69300079345703 -62.0989990234375,-39.321998596191406 -61.79899978637695,-4.916999816894531z"></path><path stroke-linecap="round" stroke-linejoin="round" fill-opacity="0" stroke="rgb(0,0,0)" stroke-opacity="1" stroke-width="5.026" d=" M-61.79899978637695,-4.916999816894531 C-69.60800170898438,-32.981998443603516 -76.4489974975586,-56.909000396728516 -78.21800231933594,-61.78099822998047 C-79.38600158691406,-65.48500061035156 -80.5199966430664,-69.55599975585938 -79.08499908447266,-73.16000366210938 C-77.14900207519531,-77.9990005493164 -71.47699737548828,-80.0009994506836 -66.43800354003906,-81.40299987792969 C-65.33699798583984,-81.7030029296875 -64.2020034790039,-82.03700256347656 -63.10100173950195,-82.33699798583984 C-62.56700134277344,-72.69300079345703 -62.0989990234375,-39.321998596191406 -61.79899978637695,-4.916999816894531z"></path></g><g opacity="1" transform="matrix(1,0,0,1,0,0)"><path fill="rgb(0,0,0)" fill-opacity="1" d=" M30.97100067138672,92.0250015258789 C14.519000053405762,96.7300033569336 -1.8990000486373901,101.43499755859375 -18.35099983215332,106.17400360107422 C-21.988000869750977,107.20800018310547 -26.19300079345703,108.20999908447266 -29.395999908447266,106.14099884033203 C-32.26599884033203,104.30599975585938 -33.268001556396484,100.7020034790039 -34.10200119018555,97.39800262451172 C-34.36899948120117,96.26300048828125 -34.736000061035156,94.8949966430664 -35.13600158691406,93.29299926757812 C-13.111000061035156,92.85900115966797 8.946000099182129,92.4260025024414 30.97100067138672,92.0250015258789z"></path><path stroke-linecap="round" stroke-linejoin="round" fill-opacity="0" stroke="rgb(0,0,0)" stroke-opacity="1" stroke-width="5.026" d=" M30.97100067138672,92.0250015258789 C14.519000053405762,96.7300033569336 -1.8990000486373901,101.43499755859375 -18.35099983215332,106.17400360107422 C-21.988000869750977,107.20800018310547 -26.19300079345703,108.20999908447266 -29.395999908447266,106.14099884033203 C-32.26599884033203,104.30599975585938 -33.268001556396484,100.7020034790039 -34.10200119018555,97.39800262451172 C-34.36899948120117,96.26300048828125 -34.736000061035156,94.8949966430664 -35.13600158691406,93.29299926757812 C-13.111000061035156,92.85900115966797 8.946000099182129,92.4260025024414 30.97100067138672,92.0250015258789z"></path></g><g opacity="1" transform="matrix(1,0,0,1,0,0)"><path fill="rgb(0,0,0)" fill-opacity="1" d=" M67.97899627685547,-101.69200134277344 C46.12099838256836,-101.39199829101562 24.263999938964844,-101.09100341796875 2.372999906539917,-100.79100036621094 C17.55699920654297,-105.06300354003906 32.7400016784668,-109.33300018310547 47.92399978637695,-113.6050033569336 C52.02899932861328,-114.73899841308594 56.599998474121094,-115.875 60.47100067138672,-114.00599670410156 C64.94300079345703,-111.83699798583984 66.6780014038086,-106.53099822998047 67.97899627685547,-101.69200134277344z"></path><path stroke-linecap="round" stroke-linejoin="round" fill-opacity="0" stroke="rgb(0,0,0)" stroke-opacity="1" stroke-width="5.026" d=" M67.97899627685547,-101.69200134277344 C46.12099838256836,-101.39199829101562 24.263999938964844,-101.09100341796875 2.372999906539917,-100.79100036621094 C17.55699920654297,-105.06300354003906 32.7400016784668,-109.33300018310547 47.92399978637695,-113.6050033569336 C52.02899932861328,-114.73899841308594 56.599998474121094,-115.875 60.47100067138672,-114.00599670410156 C64.94300079345703,-111.83699798583984 66.6780014038086,-106.53099822998047 67.97899627685547,-101.69200134277344z"></path></g><g opacity="1" transform="matrix(1,0,0,1,0,0)"><path fill="rgb(0,0,0)" fill-opacity="1" d=" M109.19200134277344,67.76399993896484 C107.69000244140625,69.93299865722656 104.98699951171875,70.76799774169922 102.45099639892578,71.50199890136719 C97.41200256347656,72.93699645996094 92.33999633789062,74.40499877929688 87.3010025024414,75.83999633789062 C87.53500366210938,42.26900100708008 87.73500061035156,8.697999954223633 87.93499755859375,-24.87299919128418 C95.11000061035156,2.825000047683716 102.28500366210938,30.52199935913086 109.49299621582031,58.220001220703125 C110.29399871826172,61.42300033569336 111.06099700927734,65.06099700927734 109.19200134277344,67.76399993896484z"></path><path stroke-linecap="round" stroke-linejoin="round" fill-opacity="0" stroke="rgb(0,0,0)" stroke-opacity="1" stroke-width="5.026" d=" M109.19200134277344,67.76399993896484 C107.69000244140625,69.93299865722656 104.98699951171875,70.76799774169922 102.45099639892578,71.50199890136719 C97.41200256347656,72.93699645996094 92.33999633789062,74.40499877929688 87.3010025024414,75.83999633789062 C87.53500366210938,42.26900100708008 87.73500061035156,8.697999954223633 87.93499755859375,-24.87299919128418 C95.11000061035156,2.825000047683716 102.28500366210938,30.52199935913086 109.49299621582031,58.220001220703125 C110.29399871826172,61.42300033569336 111.06099700927734,65.06099700927734 109.19200134277344,67.76399993896484z"></path></g></g></g></g></svg>